<?xml version="1.0" encoding="utf-8"?>
<!-- Generator: Adobe Illustrator 16.0.0, SVG Export Plug-In . SVG Version: 6.00 Build 0)  -->
<!DOCTYPE svg PUBLIC "-//W3C//DTD SVG 1.1//EN" "http://www.w3.org/Graphics/SVG/1.1/DTD/svg11.dtd">
<svg version="1.1" id="Layer_1" xmlns="http://www.w3.org/2000/svg" xmlns:xlink="http://www.w3.org/1999/xlink" x="0px" y="0px"
	 width="150px" height="150px" viewBox="0 0 150 150" enable-background="new 0 0 150 150" xml:space="preserve">
<circle fill-rule="evenodd" clip-rule="evenodd" fill="none" stroke="#EF473A" stroke-width="5" stroke-miterlimit="10" cx="74.572" cy="74.867" r="71.867"/>
<text transform="matrix(1 0 0 1 54.8862 109.8828)"><tspan x="0" y="0" font-family="'MicrosoftNewTaiLue'" font-size="18">Event</tspan><tspan x="-13.425" y="21.6" font-family="'MicrosoftNewTaiLue'" font-size="18">Calendar</tspan></text>
<path fill-rule="evenodd" clip-rule="evenodd" fill="#EF473A" d="M39.687,69.631c0,2.337,0,4.583,0,6.876c4.519,0,9,0,13.594,0
	c0-1.769,0-3.516,0-5.414c0.669,0.617,1.227,1.085,1.723,1.611c0.157,0.166,0.2,0.487,0.205,0.738
	c0.023,1.001,0.01,2.003,0.01,3.056c4.35,0,8.61,0,12.968,0c0-0.927,0.03-1.819-0.011-2.708c-0.029-0.619,0.11-1.083,0.645-1.468
	c0.413-0.297,0.728-0.729,1.271-1.295c0,1.963,0,3.697,0,5.525c0.433,0,0.725,0,1.015,0c3.052-0.001,6.105,0.028,9.158-0.023
	c0.768-0.013,1.204,0.194,1.403,0.938c0.082,0.307,0.253,0.591,0.434,0.994c-14.178,0-28.269,0-42.428,0
	c0,1.797-0.055,3.505,0.022,5.207c0.042,0.921,0.495,1.202,1.509,1.202c7.793,0.001,15.587-0.003,23.382-0.003
	c15.533,0,31.065,0.001,46.6,0.003c0.108,0,0.216,0.001,0.325,0.001c1.826,0.008,2.09-0.252,2.088-2.05
	c-0.005-1.413-0.002-2.823-0.002-4.305c-4.235,0-8.394,0-12.676,0c0.285-0.662,0.478-1.252,0.791-1.764
	c0.103-0.168,0.522-0.196,0.797-0.197c3.408-0.012,6.813-0.008,10.22-0.008c0.244,0,0.488,0,0.799,0c0-2.299,0-4.564,0-6.916
	c-1.021,0-2.022,0-3.023,0c-2.562,0.001-5.125-0.022-7.685,0.022c-0.743,0.012-1.249-0.118-1.432-0.919
	c-0.07-0.307-0.257-0.589-0.441-0.996c4.229,0,8.372,0,12.65,0c0-1.225-0.023-2.358,0.017-3.487c0.011-0.316,0.12-0.718,0.335-0.926
	c1.714-1.661,2.844-3.629,3.287-5.983c0.034-0.182,0.111-0.356,0.226-0.702c0,5.03,0,9.891-0.002,14.75c0,4.033,0,8.066-0.003,12.1
	c-0.002,3.055-1.888,4.942-4.946,4.942c-23.926,0.004-47.853,0.006-71.78,0.004c-3.069,0-4.945-1.882-4.945-4.938
	c-0.001-18.722-0.001-37.443,0-56.165c0-3.146,1.833-4.994,4.958-5.006c1.771-0.008,3.543-0.004,5.314-0.005
	c0.293,0,0.587,0,0.924,0c0,1.314,0,2.527,0,3.809c-0.941,0-1.858-0.02-2.774,0.005c-1.195,0.032-2.393,0.067-3.584,0.163
	c-0.664,0.053-0.985,0.483-0.984,1.174c0.007,7.331,0.004,14.66,0.007,21.991c0,0.131,0.025,0.261,0.045,0.457
	c19.159,0,38.278,0,57.525,0c-0.27,0.638-0.45,1.202-0.75,1.692c-0.107,0.179-0.502,0.255-0.768,0.257
	c-3.217,0.017-6.432,0.045-9.646-0.012c-0.868-0.016-1.044,0.267-1.022,1.063c0.056,1.928,0.019,3.859,0.019,5.906
	c0.407,0,0.727,0,1.044,0c3.106,0,6.214,0.027,9.319-0.02c0.746-0.011,1.179,0.174,1.354,0.92c0.075,0.31,0.266,0.593,0.459,1.004
	c-4.056,0-8.04,0-12.177,0c0,0.989-0.045,1.878,0.014,2.761c0.043,0.665-0.148,1.125-0.694,1.523
	c-0.389,0.284-0.669,0.711-0.997,1.074c-0.073-0.023-0.144-0.045-0.214-0.069c0-1.707,0-3.413,0-5.197
	c-0.421-0.021-0.708-0.048-0.995-0.048c-3.026-0.005-6.051-0.037-9.075,0.016c-0.827,0.015-1.346-0.158-1.534-1.013
	c-0.062-0.28-0.238-0.536-0.429-0.952c0.39,0,0.672,0,0.953,0c3.378,0.001,6.758-0.021,10.136,0.019
	c0.741,0.008,0.924-0.222,0.904-0.927c-0.049-1.716-0.015-3.433-0.02-5.15c0-0.265-0.029-0.528-0.051-0.878
	c-0.601,0-1.139,0-1.677,0c-3.461-0.001-6.922,0.014-10.382-0.019c-0.675-0.007-0.899,0.183-0.877,0.87
	c0.048,1.463,0.015,2.929,0.015,4.562c-0.69-0.628-1.279-1.126-1.812-1.679c-0.137-0.141-0.122-0.456-0.125-0.692
	c-0.012-0.977-0.005-1.953-0.005-2.987c-0.325-0.024-0.562-0.057-0.799-0.057c-3.76-0.004-7.521,0.018-11.281-0.021
	c-0.75-0.007-0.977,0.251-0.89,0.942c0.034,0.269,0.005,0.544,0.005,0.817c0,2.159,0,2.159-1.938,3.671c0-1.826,0-3.573,0-5.362
	c-4.584,0-9.066,0-13.593,0c0,2.297,0,4.544,0,6.89c4.191,0,8.345,0,12.595,0c-0.27,0.637-0.433,1.193-0.737,1.658
	c-0.127,0.195-0.551,0.272-0.84,0.274c-3.325,0.019-6.65,0.013-9.974,0.013c-0.323,0-0.646,0-1.028,0c0,2.322,0,4.567,0,6.93
	c0.339,0,0.656,0,0.973,0c3.244,0,6.487,0.029,9.729-0.022c0.796-0.012,1.287,0.158,1.48,0.966c0.072,0.303,0.236,0.585,0.406,0.989
	C48.034,69.631,43.883,69.631,39.687,69.631z"/>
<path fill-rule="evenodd" clip-rule="evenodd" fill="#EF473A" d="M102.957,26.172c-0.007,1.104-0.127,2.015,0.649,2.92
	c1.055,1.231,0.637,3.274-0.649,4.318c-1.258,1.022-3.181,0.924-4.33-0.219c-1.187-1.183-1.335-3.121-0.253-4.381
	c0.393-0.456,0.515-0.896,0.511-1.462c-0.018-3.105-0.023-6.212-0.007-9.317c0.009-1.578,1.361-2.504,2.802-1.961
	c0.782,0.294,1.243,0.94,1.249,1.826c0.016,1.442,0.005,2.885,0.005,4.445c0.366,0,0.684,0,1.001,0c2.94,0,5.883-0.017,8.826,0.009
	c2.773,0.023,4.663,1.928,4.695,4.681c0.007,0.654,0.003,1.309,0.003,1.962c0.002,8.31,0.002,16.619-0.061,24.941
	c-0.109-0.431-0.221-0.86-0.328-1.291c-0.499-1.98-1.541-3.637-2.953-5.096c-0.278-0.29-0.499-0.779-0.502-1.178
	c-0.029-6.13-0.019-12.26-0.019-18.39c0-1.479-0.337-1.811-1.831-1.811c-2.643,0.001-5.285,0.003-7.928,0.004
	C103.572,26.172,103.304,26.172,102.957,26.172z"/>
<path fill-rule="evenodd" clip-rule="evenodd" d="M53.564,64.228c-0.024-4.474,3.575-8.125,8.043-8.157
	c4.536-0.033,8.257,3.569,8.285,8.017c0.029,4.591-3.627,8.302-8.188,8.31C57.228,72.406,53.589,68.755,53.564,64.228z
	 M60.521,65.524c-0.664-0.891-1.386-1.87-2.118-2.843c-0.593-0.788-1.223-0.975-1.777-0.543c-0.544,0.423-0.539,1.002,0.04,1.789
	c0.967,1.315,1.946,2.624,2.917,3.937c0.827,1.116,1.479,1.026,2.314-0.111c1.35-1.839,2.8-3.604,4.221-5.389
	c0.253-0.317,0.71-0.532,0.83-0.878c0.138-0.399,0.177-1.043-0.054-1.302c-0.232-0.26-0.853-0.245-1.294-0.218
	c-0.216,0.013-0.438,0.306-0.616,0.506C63.505,62.135,62.036,63.807,60.521,65.524z"/>
<path fill-rule="evenodd" clip-rule="evenodd" d="M99.678,73.108c-0.039,4.556-3.699,8.175-8.252,8.149
	c-4.483-0.022-8.138-3.787-8.085-8.328c0.054-4.444,3.736-8.028,8.223-8.001C96.085,64.954,99.712,68.611,99.678,73.108z
	 M90.348,74.416c-0.723-0.964-1.479-1.99-2.253-3.003c-0.517-0.677-1.146-0.824-1.667-0.414c-0.515,0.404-0.523,1.032-0.011,1.728
	c1.003,1.356,2.008,2.71,3.016,4.061c0.778,1.044,1.451,0.967,2.212-0.095c1.183-1.655,2.437-3.261,3.693-4.862
	c0.366-0.467,0.846-0.844,1.262-1.273c0.521-0.539,0.558-1.126,0.114-1.592c-0.414-0.436-1.053-0.418-1.598,0.062
	c-0.306,0.27-0.614,0.542-0.881,0.85C92.939,71.372,91.659,72.88,90.348,74.416z"/>
<path fill-rule="evenodd" clip-rule="evenodd" d="M106.572,63.514c-4.501-0.022-8.131-3.682-8.118-8.19
	c0.011-4.468,3.742-8.178,8.189-8.14c4.51,0.038,8.188,3.716,8.168,8.168C114.792,59.899,111.123,63.534,106.572,63.514z
	 M105.435,56.661c-0.763-1.016-1.561-2.111-2.396-3.176c-0.413-0.527-0.973-0.611-1.507-0.184c-0.495,0.398-0.559,0.932-0.182,1.449
	c1.121,1.538,2.244,3.074,3.403,4.583c0.513,0.666,1.351,0.649,1.777-0.053c1.468-2.407,3.206-4.585,5.253-6.523
	c0.456-0.433,0.506-0.974,0.073-1.457c-0.453-0.504-0.988-0.518-1.518-0.091c-0.191,0.154-0.375,0.319-0.538,0.501
	C108.364,53.334,106.931,54.964,105.435,56.661z"/>
<path fill-rule="evenodd" clip-rule="evenodd" fill="#EF473A" d="M95.575,22.303c0,1.356,0,2.549,0,3.834c-2.919,0-5.819,0-8.771,0
	c-0.036,1.062-0.227,1.966,0.56,2.874c1.071,1.231,0.725,3.256-0.533,4.339c-1.232,1.062-3.146,1.019-4.332-0.096
	c-1.247-1.173-1.434-3.145-0.321-4.432c0.415-0.484,0.519-0.953,0.514-1.541c-0.015-3.079-0.017-6.157-0.006-9.236
	c0.006-1.58,1.329-2.508,2.784-1.981c0.81,0.294,1.263,0.945,1.271,1.895c0.014,1.412,0.005,2.825,0.005,4.343
	C89.698,22.303,92.594,22.303,95.575,22.303z"/>
<path fill-rule="evenodd" clip-rule="evenodd" fill="#EF473A" d="M79.383,22.306c0,1.353,0,2.546,0,3.832c-2.918,0-5.814,0-8.769,0
	c-0.038,1.063-0.23,1.97,0.555,2.874c1.06,1.22,0.713,3.268-0.539,4.339c-1.233,1.054-3.154,1.007-4.329-0.105
	c-1.225-1.159-1.43-3.084-0.354-4.359c0.45-0.533,0.557-1.05,0.553-1.693c-0.019-3.049-0.019-6.098-0.007-9.147
	c0.006-1.579,1.331-2.506,2.785-1.978c0.798,0.291,1.258,0.947,1.271,1.899c0.018,1.412,0.004,2.822,0.004,4.338
	C73.512,22.306,76.405,22.306,79.383,22.306z"/>
<path fill-rule="evenodd" clip-rule="evenodd" fill="#EF473A" d="M54.502,22.32c2.833,0,5.708,0,8.649,0c0,1.304,0,2.533,0,3.83
	c-2.898,0-5.774,0-8.761,0c0.053,0.996-0.272,1.891,0.526,2.777c1.087,1.208,0.816,3.238-0.405,4.354
	c-1.199,1.095-3.125,1.11-4.329,0.034c-1.288-1.153-1.53-3.101-0.446-4.411c0.436-0.529,0.574-1.037,0.569-1.686
	c-0.021-2.966-0.006-5.934-0.006-8.9c0-1.518,0.766-2.42,2.041-2.399c1.29,0.022,2.015,0.894,2.023,2.432
	c0.006,1.251,0.013,2.504,0.023,3.755C54.387,22.151,54.435,22.198,54.502,22.32z"/>
<path fill-rule="evenodd" clip-rule="evenodd" fill="#EF473A" d="M82.058,67.697c-0.742,1.948-0.742,1.942-2.639,1.938
	c-2.715-0.005-5.431-0.001-8.278-0.001c0.27-0.636,0.493-1.199,0.755-1.743c0.051-0.104,0.26-0.187,0.397-0.187
	C75.523,67.696,78.753,67.697,82.058,67.697z"/>
<path fill-rule="evenodd" clip-rule="evenodd" fill="#EF473A" d="M47.81,42.443c0,0.704,0.047,1.414-0.015,2.113
	c-0.051,0.57-0.205,1.19-0.951,1.21s-0.974-0.557-0.985-1.152c-0.028-1.46-0.033-2.925,0.067-4.38
	c0.019-0.279,0.53-0.676,0.87-0.744c0.542-0.11,0.94,0.272,0.979,0.839c0.047,0.702,0.012,1.409,0.012,2.114
	C47.795,42.443,47.802,42.443,47.81,42.443z"/>
<path fill-rule="evenodd" clip-rule="evenodd" fill="#EF473A" d="M62.698,42.454c0,0.732,0.048,1.469-0.016,2.195
	c-0.048,0.549-0.25,1.109-0.948,1.124c-0.706,0.015-0.943-0.523-0.958-1.089c-0.037-1.488-0.049-2.98,0.043-4.464
	c0.017-0.273,0.541-0.668,0.881-0.733c0.543-0.103,0.935,0.287,0.972,0.853c0.046,0.702,0.011,1.41,0.011,2.115
	C62.688,42.454,62.693,42.454,62.698,42.454z"/>
<path fill-rule="evenodd" clip-rule="evenodd" fill="#EF473A" d="M90.549,42.313c0-0.651-0.025-1.304,0.009-1.954
	c0.028-0.574,0.405-0.979,0.945-0.869c0.358,0.073,0.896,0.492,0.917,0.788c0.105,1.43,0.086,2.871,0.054,4.307
	c-0.013,0.588-0.208,1.187-0.958,1.185c-0.802-0.004-0.935-0.651-0.973-1.259c-0.05-0.729-0.011-1.464-0.011-2.197
	C90.536,42.313,90.543,42.313,90.549,42.313z"/>
<path fill-rule="evenodd" clip-rule="evenodd" fill="#EF473A" d="M77.591,42.33c0,0.759,0.039,1.52-0.013,2.275
	c-0.039,0.589-0.226,1.175-0.979,1.165c-0.695-0.01-0.927-0.558-0.94-1.118c-0.036-1.462-0.053-2.93,0.049-4.387
	c0.021-0.29,0.57-0.693,0.935-0.773c0.495-0.109,0.886,0.268,0.921,0.804c0.043,0.676,0.01,1.355,0.01,2.034
	C77.578,42.33,77.585,42.33,77.591,42.33z"/>
<path fill-rule="evenodd" clip-rule="evenodd" fill="#EF473A" d="M105.445,44.57c0-1.45-0.03-2.857,0.015-4.262
	c0.02-0.562,0.436-0.874,1.003-0.848c0.525,0.023,0.868,0.316,0.895,0.867c0.049,1.166,0.07,2.333,0.124,3.5
	c0.025,0.598-0.203,0.838-0.816,0.753C106.294,44.527,105.91,44.57,105.445,44.57z"/>
<path fill-rule="evenodd" clip-rule="evenodd" fill="#EF473A" d="M98.132,62.158c1.25,0.993,2.366,2.055,1.715,3.886
	C98.46,65.124,97.521,63.983,98.132,62.158z"/>
<path fill-rule="evenodd" clip-rule="evenodd" fill="#EF473A" d="M60.521,65.524c1.516-1.718,2.985-3.39,4.463-5.053
	c0.178-0.201,0.399-0.493,0.616-0.506c0.441-0.026,1.062-0.042,1.294,0.218c0.231,0.259,0.192,0.903,0.054,1.302
	c-0.12,0.346-0.577,0.561-0.83,0.878c-1.421,1.785-2.871,3.55-4.221,5.389c-0.835,1.137-1.488,1.227-2.314,0.111
	c-0.971-1.313-1.95-2.622-2.917-3.937c-0.578-0.787-0.583-1.366-0.04-1.789c0.554-0.431,1.184-0.244,1.777,0.543
	C59.135,63.654,59.857,64.634,60.521,65.524z"/>
<path fill-rule="evenodd" clip-rule="evenodd" fill="#EF473A" d="M90.348,74.416c1.312-1.536,2.592-3.044,3.888-4.54
	c0.267-0.307,0.575-0.58,0.881-0.85c0.545-0.479,1.184-0.497,1.598-0.062c0.443,0.466,0.407,1.054-0.114,1.592
	c-0.416,0.43-0.896,0.806-1.262,1.273c-1.257,1.602-2.511,3.208-3.693,4.862c-0.761,1.062-1.434,1.139-2.212,0.095
	c-1.008-1.351-2.013-2.705-3.016-4.061c-0.513-0.696-0.504-1.323,0.011-1.728c0.521-0.41,1.15-0.263,1.667,0.414
	C88.869,72.426,89.625,73.451,90.348,74.416z"/>
<path fill-rule="evenodd" clip-rule="evenodd" fill="#EF473A" d="M105.435,56.661c1.496-1.697,2.93-3.327,4.366-4.951
	c0.163-0.182,0.347-0.347,0.538-0.501c0.529-0.426,1.064-0.413,1.518,0.091c0.433,0.482,0.383,1.024-0.073,1.457
	c-2.047,1.938-3.785,4.117-5.253,6.523c-0.427,0.702-1.265,0.718-1.777,0.053c-1.159-1.509-2.282-3.044-3.403-4.583
	c-0.377-0.517-0.313-1.051,0.182-1.449c0.534-0.427,1.094-0.343,1.507,0.184C103.874,54.55,104.672,55.646,105.435,56.661z"/>
</svg>
