<?xml version="1.0" encoding="utf-8"?>
<!-- Generator: Adobe Illustrator 16.0.0, SVG Export Plug-In . SVG Version: 6.00 Build 0)  -->
<!DOCTYPE svg PUBLIC "-//W3C//DTD SVG 1.1//EN" "http://www.w3.org/Graphics/SVG/1.1/DTD/svg11.dtd">
<svg version="1.1" id="Layer_1" xmlns="http://www.w3.org/2000/svg" xmlns:xlink="http://www.w3.org/1999/xlink" x="0px" y="0px"
	 width="150px" height="150px" viewBox="0 0 150 150" enable-background="new 0 0 150 150" xml:space="preserve">
<circle fill-rule="evenodd" clip-rule="evenodd" fill="none" stroke="#EF473A" stroke-width="5" stroke-miterlimit="10" cx="74.572" cy="74.867" r="71.867"/>
<text transform="matrix(1 0 0 1 26.5063 113.2158)" font-family="'MicrosoftNewTaiLue'" font-size="18">Notifications</text>
<path fill-rule="evenodd" clip-rule="evenodd" fill="#EF473A" d="M112.422,47.657c-0.005,20.374-16.438,36.727-36.881,36.701
	c-20.227-0.024-36.578-16.463-36.574-36.766c0.004-20.394,16.4-36.706,36.875-36.688C96.074,10.922,112.427,27.351,112.422,47.657z
	 M47.127,47.54C47.029,63.1,59.924,76.072,75.601,76.19c15.539,0.113,28.536-12.807,28.65-28.479
	c0.111-15.544-12.818-28.553-28.476-28.646C60.206,18.973,47.225,31.874,47.127,47.54z"/>
<path fill-rule="evenodd" clip-rule="evenodd" d="M79.876,42.187c0,3.813,0.029,7.626-0.011,11.441
	c-0.033,3.087-1.735,5.005-4.278,4.939c-2.446-0.063-4.059-1.931-4.07-4.901c-0.033-7.707-0.036-15.415,0.001-23.121
	c0.013-2.942,1.69-4.806,4.151-4.819c2.46-0.015,4.152,1.848,4.191,4.781C79.915,34.4,79.876,38.294,79.876,42.187z"/>
<path fill-rule="evenodd" clip-rule="evenodd" d="M79.847,65.714c-0.048,2.191-1.951,4.005-4.183,3.992
	c-2.236-0.013-4.118-1.853-4.136-4.042c-0.018-2.249,2.041-4.232,4.305-4.151C78.012,61.595,79.895,63.561,79.847,65.714z"/>
</svg>
