<?xml version="1.0" encoding="utf-8"?>
<!-- Generator: Adobe Illustrator 16.0.0, SVG Export Plug-In . SVG Version: 6.00 Build 0)  -->
<!DOCTYPE svg PUBLIC "-//W3C//DTD SVG 1.1//EN" "http://www.w3.org/Graphics/SVG/1.1/DTD/svg11.dtd">
<svg version="1.1" id="Layer_1" xmlns="http://www.w3.org/2000/svg" xmlns:xlink="http://www.w3.org/1999/xlink" x="0px" y="0px"
	 width="150px" height="150px" viewBox="0 0 150 150" enable-background="new 0 0 150 150" xml:space="preserve">
<path fill-rule="evenodd" clip-rule="evenodd" fill="#EF473A" d="M75.857,88.754c-0.872,0-1.521,0.002-2.171,0
	c-9.61-0.018-19.222-0.037-28.833-0.051c-5.846-0.006-9.939-3.779-9.962-9.582c-0.076-18.835-0.06-37.671-0.007-56.506
	c0.012-4.206,4.523-8.507,8.906-8.518c20.217-0.045,40.433-0.042,60.649-0.005c3.869,0.008,8.266,4.365,8.305,8.354
	c0.111,10.936,0.07,21.873,0.08,32.81c0,0.361-0.123,0.722-0.219,1.25c-1.74-0.711-3.41-1.272-4.934-2.096
	c-0.42-0.226-0.57-1.239-0.576-1.894c-0.057-7.4-0.049-14.802-0.092-22.204c-0.014-2.317-0.105-4.635-0.203-6.95
	c-0.074-1.759-1.117-2.995-2.848-3.335c-0.75-0.147-1.537-0.155-2.307-0.156c-17.455-0.011-34.909-0.017-52.363-0.006
	c-1.544,0-3.087,0.135-4.632,0.185c-2.442,0.08-3.767,1.376-3.803,3.826c-0.087,6.129-0.194,12.257-0.214,18.386
	c-0.031,9.776-0.012,19.554,0.015,29.33c0.007,2.539,0.109,5.078,0.2,7.615c0.072,2.023,1.182,3.266,3.2,3.564
	c0.87,0.127,1.759,0.164,2.64,0.168c8.506,0.033,17.013,0.115,25.518,0.021c1.813-0.02,2.579,0.504,2.77,2.262
	C75.092,86.299,75.494,87.348,75.857,88.754z"/>
<path fill-rule="evenodd" clip-rule="evenodd" d="M118.754,79.514c0,10.264-8.338,18.449-18.771,18.455
	c-9.744,0.008-18.561-7.736-18.561-18.551c0-10.954,8.414-18.874,18.822-18.843C111.09,60.606,119.041,69.62,118.754,79.514z
	 M100.236,69.143c-4.17,0.027-3.666-0.352-3.701,3.208c-0.035,3.404,0.436,3.212-3.199,3.214c-3.398,0.001-3.416,0.003-3.395,3.308
	c0.031,4.713-0.543,4.088,4.154,4.129c2.436,0.023,2.436,0.006,2.438,2.434c0.002,4.297,0.002,4.297,4.314,4.074
	c2.904-0.148,2.904-0.148,2.936-3.012c0.008-0.717,0.047-1.438,0.008-2.15c-0.055-1.006,0.398-1.387,1.379-1.361
	c1.213,0.031,2.436,0.063,3.635-0.074c0.492-0.057,1.316-0.535,1.334-0.855c0.102-1.969,0.016-3.945-0.006-5.92
	c-1.428-0.19-2.855-0.381-4.283-0.571c-0.053-0.007-0.111-0.007-0.164,0c-1.428,0.175-2.08-0.418-1.893-1.879
	c0.043-0.325,0.008-0.661,0.006-0.992C103.773,68.781,104.18,69.165,100.236,69.143z"/>
<path fill-rule="evenodd" clip-rule="evenodd" fill="#EF473A" d="M81.924,39.649c-4.744,0.003-9.487,0.018-14.23-0.004
	c-2.185-0.011-3.223-1.041-3.333-3.194c-0.253-4.974,0.529-5.797,5.526-5.798c8.051-0.002,16.105,0,24.158-0.001
	c0.221,0,0.441,0.002,0.662,0.001c4.734-0.031,5.67,1.282,4.957,6.558c-0.217,1.598-1.275,2.464-3.014,2.451
	C91.742,39.623,86.832,39.647,81.924,39.649z"/>
<path fill-rule="evenodd" clip-rule="evenodd" fill="#EF473A" d="M82.107,47.1c4.641,0.001,9.281-0.012,13.924,0.005
	c2.982,0.012,4.852,2.767,3.662,5.481c-0.191,0.434-0.881,0.773-1.406,0.915c-3.068,0.832-6.156,1.601-9.244,2.368
	c-0.633,0.158-1.291,0.308-1.938,0.31c-6.408,0.021-12.82,0.015-19.229,0.006c-2.207-0.004-3.209-0.918-3.473-3.122
	c-0.02-0.164-0.025-0.33-0.033-0.495c-0.235-4.588,0.586-5.465,5.139-5.469C73.708,47.096,77.908,47.099,82.107,47.1z"/>
<path fill-rule="evenodd" clip-rule="evenodd" fill="#EF473A" d="M79.127,63.556c-1.273,2.746-2.479,5.444-3.794,8.088
	c-0.211,0.424-0.899,0.845-1.38,0.86c-2.259,0.068-4.521-0.003-6.784-0.033c-0.218-0.003-0.443-0.031-0.654-0.088
	c-1.681-0.457-2.246-1.773-2.155-4.992c0.069-2.413,0.707-3.722,2.368-3.783C70.888,63.452,75.058,63.556,79.127,63.556z"/>
<path fill-rule="evenodd" clip-rule="evenodd" fill="#EF473A" d="M48.068,34.832c-0.208-2.973,0.384-4.371,3.966-4.485
	c4.073-0.13,5.092,0.908,5.084,4.795c-0.008,3.813-0.78,4.487-5.125,4.477C48.767,39.612,48.059,38.746,48.068,34.832z"/>
<path fill-rule="evenodd" clip-rule="evenodd" fill="#EF473A" d="M48.099,51.602c0.001-0.605-0.062-1.219,0.021-1.813
	c0.073-0.529,0.159-1.177,0.495-1.527c1.848-1.93,4.232-1.227,6.377-0.929c1.708,0.237,2.076,1.805,2.155,3.44
	c0.283,5.917-1.854,5.667-6.798,5.282c-1.354-0.105-2.336-1.188-2.254-2.803C48.121,52.705,48.097,52.153,48.099,51.602z"/>
<path fill-rule="evenodd" clip-rule="evenodd" fill="#EF473A" d="M52.931,63.029c1.214,0.562,2.622,0.902,3.591,1.744
	c1.062,0.923,0.874,5.517-0.104,6.585c-0.475,0.518-1.23,0.97-1.911,1.064c-1.242,0.172-2.527,0.115-3.788,0.044
	c-1.481-0.084-2.528-1.179-2.618-2.666c-0.056-0.932-0.038-1.87-0.021-2.805c0.047-2.602,0.995-3.509,3.652-3.521
	c0.33-0.001,0.66-0.001,0.99-0.001C52.792,63.326,52.861,63.177,52.931,63.029z"/>
<rect x="-292.792" y="-35.606" fill="#EF473A" width="18.239" height="29.14"/>
<circle fill-rule="evenodd" clip-rule="evenodd" fill="none" stroke="#EF473A" stroke-width="5" stroke-miterlimit="10" cx="74.572" cy="74.867" r="71.867"/>
<text transform="matrix(1 0 0 1 21.1538 112.7891)"><tspan x="0" y="0" font-family="'MicrosoftNewTaiLue'" font-size="18">Class Student </tspan><tspan x="42.688" y="21.6" font-family="'MicrosoftNewTaiLue'" font-size="18">List</tspan></text>
</svg>
