<?xml version="1.0" encoding="utf-8"?>
<!-- Generator: Adobe Illustrator 16.0.0, SVG Export Plug-In . SVG Version: 6.00 Build 0)  -->
<!DOCTYPE svg PUBLIC "-//W3C//DTD SVG 1.1//EN" "http://www.w3.org/Graphics/SVG/1.1/DTD/svg11.dtd">
<svg version="1.1" id="Layer_1" xmlns="http://www.w3.org/2000/svg" xmlns:xlink="http://www.w3.org/1999/xlink" x="0px" y="0px"
	 width="150px" height="150px" viewBox="0 0 150 150" enable-background="new 0 0 150 150" xml:space="preserve">
<rect x="-292.792" y="-35.606" fill="#EF473A" width="18.239" height="29.14"/>
<circle fill-rule="evenodd" clip-rule="evenodd" fill="none" stroke="#EF473A" stroke-width="5" stroke-miterlimit="10" cx="74.572" cy="74.867" r="71.867"/>
<text transform="matrix(1 0 0 1 43.2866 99.8828)"><tspan x="0" y="0" font-family="'MicrosoftNewTaiLue'" font-size="18">Student</tspan><tspan x="6.24" y="21.6" font-family="'MicrosoftNewTaiLue'" font-size="18">Exams</tspan></text>
<path fill-rule="evenodd" clip-rule="evenodd" fill="#EF473A" d="M332.396,71.056c-16.513,0-33.026,0-49.541,0
	c-0.071-0.045-0.136-0.109-0.214-0.133c-2.334-0.709-3.662-2.475-3.662-4.91c0-17.635,0.001-35.27,0.012-52.905
	c0.001-0.536,0.04-1.089,0.178-1.604c0.596-2.246,2.443-3.615,4.854-3.629c2.684-0.017,5.367-0.02,8.051-0.028l-0.018-0.012
	c-0.005,2.067-0.02,4.134-0.008,6.201c0.004,0.716,0.545,1.283,1.236,1.378c0.658,0.091,1.333-0.365,1.516-1.057
	c0.068-0.256,0.082-0.532,0.084-0.798c0.016-1.909,0.021-3.819,0.029-5.729l-0.017,0.019c3.444,0.007,6.888,0.021,10.333,0.02
	c5.043-0.001,10.085-0.013,15.128-0.02l-0.019-0.019c0.011,2.008,0.01,4.015,0.033,6.022c0.012,0.935,0.601,1.559,1.424,1.567
	c0.811,0.008,1.404-0.636,1.407-1.562c0.005-2.008-0.003-4.015-0.004-6.023l-0.018,0.013c2.683,0.008,5.367,0.007,8.05,0.033
	c0.49,0.004,0.994,0.062,1.468,0.188c2.249,0.607,3.565,2.474,3.565,5.039c0.005,17.521,0.006,35.042,0.008,52.565
	c0,2.836-1.097,4.358-3.791,5.284C332.446,70.97,332.424,71.021,332.396,71.056z M330.205,22.388c-15.088,0-30.115,0-45.154,0
	c0,14.386,0,28.722,0,43.096c15.064,0,30.093,0,45.154,0C330.205,51.112,330.205,36.775,330.205,22.388z"/>
<path fill-rule="evenodd" clip-rule="evenodd" fill="#EF473A" d="M293.954,1.751c0.738,0.46,0.995,1.113,0.958,1.983
	c-0.06,1.369-0.017,2.743-0.017,4.114l0.017-0.019c-0.952,0.002-1.905,0.003-2.857,0.005l0.018,0.012
	c-0.01-1.655-0.078-3.313,0.019-4.961c0.022-0.395,0.596-0.757,0.916-1.134C293.322,1.751,293.639,1.751,293.954,1.751z"/>
<path fill-rule="evenodd" clip-rule="evenodd" fill="#EF473A" d="M320.356,7.849c0-1.373,0.047-2.748-0.019-4.117
	c-0.042-0.878,0.22-1.522,0.958-1.98c0.316,0,0.633,0,0.948,0c0.771,0.389,1.045,1.017,1.009,1.869
	c-0.06,1.408-0.051,2.818-0.072,4.227l0.018-0.013c-0.953-0.001-1.906-0.002-2.86-0.004L320.356,7.849z"/>
<path fill-rule="evenodd" clip-rule="evenodd" d="M327.364,25.243c0,12.476,0,24.898,0,37.378c-13.149,0-26.28,0-39.456,0
	c0-12.439,0-24.879,0-37.378C301.032,25.243,314.163,25.243,327.364,25.243z M295.671,41.822c0.167-0.143,0.273-0.224,0.368-0.315
	c3.418-3.31,6.832-6.619,10.246-9.931c0.129-0.124,0.26-0.254,0.359-0.401c0.355-0.527,0.293-1.293-0.127-1.754
	c-0.445-0.489-1.145-0.616-1.725-0.274c-0.248,0.146-0.463,0.358-0.673,0.561c-2.608,2.522-5.214,5.049-7.82,7.574
	c-0.175,0.169-0.357,0.33-0.619,0.57c-0.9-0.924-1.769-1.834-2.657-2.723c-0.631-0.632-1.461-0.662-2.051-0.11
	c-0.595,0.556-0.6,1.464,0.031,2.106C292.535,38.684,294.084,40.227,295.671,41.822z M295.717,56.997
	c0.191-0.176,0.375-0.337,0.549-0.507c3.303-3.203,6.605-6.405,9.898-9.616c0.252-0.246,0.507-0.533,0.637-0.85
	c0.253-0.62-0.024-1.295-0.587-1.641c-0.613-0.378-1.234-0.3-1.837,0.282c-2.693,2.599-5.376,5.208-8.064,7.813
	c-0.175,0.17-0.357,0.333-0.725,0.674c-0.176-0.27-0.303-0.548-0.503-0.758c-0.702-0.733-1.411-1.459-2.151-2.153
	c-0.605-0.566-1.387-0.555-1.952-0.032c-0.548,0.508-0.656,1.398-0.119,1.949C292.447,53.786,294.076,55.369,295.717,56.997z
	 M314.579,38.856c2.255,0,4.51,0.001,6.764-0.001c1.025-0.001,1.688-0.576,1.67-1.438c-0.019-0.843-0.665-1.411-1.652-1.412
	c-4.507-0.006-9.017-0.006-13.523,0c-0.995,0.002-1.614,0.565-1.622,1.427c-0.007,0.867,0.608,1.42,1.603,1.422
	C310.072,38.858,312.326,38.855,314.579,38.856z M314.67,50.161c-2.299,0-4.596-0.007-6.893,0.003
	c-1.109,0.004-1.771,0.806-1.514,1.792c0.177,0.671,0.732,1.036,1.619,1.038c3.648,0.003,7.297,0,10.946,0
	c0.877,0,1.757,0.004,2.634-0.003c0.666-0.005,1.19-0.268,1.441-0.913c0.377-0.976-0.288-1.899-1.41-1.91
	C319.22,50.147,316.943,50.163,314.67,50.161z"/>
<path fill-rule="evenodd" clip-rule="evenodd" fill="#EF473A" d="M295.671,41.822c-1.587-1.596-3.136-3.139-4.667-4.698
	c-0.631-0.642-0.626-1.55-0.031-2.106c0.59-0.552,1.42-0.522,2.051,0.11c0.889,0.889,1.757,1.799,2.657,2.723
	c0.262-0.24,0.444-0.401,0.619-0.57c2.606-2.525,5.212-5.052,7.82-7.574c0.21-0.203,0.425-0.415,0.673-0.561
	c0.58-0.341,1.279-0.214,1.725,0.274c0.42,0.461,0.482,1.228,0.127,1.754c-0.1,0.147-0.23,0.277-0.359,0.401
	c-3.414,3.312-6.828,6.622-10.246,9.931C295.944,41.598,295.838,41.68,295.671,41.822z"/>
<path fill-rule="evenodd" clip-rule="evenodd" fill="#EF473A" d="M295.717,56.997c-1.641-1.627-3.27-3.21-4.854-4.838
	c-0.537-0.551-0.429-1.441,0.119-1.949c0.565-0.523,1.347-0.535,1.952,0.032c0.74,0.693,1.449,1.42,2.151,2.153
	c0.2,0.209,0.327,0.488,0.503,0.758c0.367-0.341,0.55-0.504,0.725-0.674c2.688-2.605,5.371-5.213,8.064-7.813
	c0.603-0.583,1.224-0.66,1.837-0.282c0.563,0.346,0.84,1.021,0.587,1.641c-0.13,0.317-0.385,0.604-0.637,0.85
	c-3.293,3.211-6.596,6.413-9.898,9.616C296.092,56.659,295.908,56.821,295.717,56.997z"/>
<path fill-rule="evenodd" clip-rule="evenodd" fill="#EF473A" d="M95.383,75c-14.114,0-28.228,0-42.342,0
	c0-19.529,0-39.059,0-58.591c14.114,0,28.228,0,42.342,0C95.383,35.941,95.383,55.471,95.383,75z M92.863,18.948
	c-12.472,0-24.876,0-37.293,0c0,17.858,0,35.677,0,53.506c12.453,0,24.874,0,37.293,0C92.863,54.6,92.863,36.79,92.863,18.948z"/>
<path fill-rule="evenodd" clip-rule="evenodd" fill="#EF473A" d="M61.419,48.961c0-0.826,0-1.639,0-2.49c8.936,0,17.864,0,26.829,0
	c0,0.829,0,1.639,0,2.49C79.31,48.961,70.384,48.961,61.419,48.961z"/>
<path fill-rule="evenodd" clip-rule="evenodd" fill="#EF473A" d="M61.422,58.217c8.952,0,17.865,0,26.819,0c0,0.829,0,1.639,0,2.497
	c-8.922,0-17.848,0-26.819,0C61.422,59.901,61.422,59.092,61.422,58.217z"/>
<path fill-rule="evenodd" clip-rule="evenodd" fill="#EF473A" d="M88.258,63.642c0,0.858,0,1.655,0,2.49c-8.948,0-17.877,0-26.839,0
	c0-0.826,0-1.639,0-2.49C70.354,63.642,79.283,63.642,88.258,63.642z"/>
<path fill-rule="evenodd" clip-rule="evenodd" fill="#EF473A" d="M77.956,42.587c2.438-0.029,4.737-0.57,6.736-2.011
	c3.012-2.17,4.119-5.188,3.701-8.796c-0.621-5.356-5.473-9.492-10.833-9.152c-1.321,0.084-2.62,0.603-3.925,0.93
	c-0.126,0.029-0.243,0.11-0.369,0.149c-0.331,0.107-0.696,0.363-0.965-0.078c-0.194-0.321,0.026-0.82,0.541-0.985
	c1.228-0.392,2.458-0.858,3.728-1.036c6.128-0.865,11.951,3.546,12.867,9.667c0.891,5.969-2.591,10.93-8.563,12.116
	c-3.469,0.69-6.802,0.308-9.843-1.616c-3.886-2.455-5.554-6.875-4.291-11.326c0.269-0.949,0.638-1.872,0.975-2.798
	c0.113-0.314,0.275-0.654,0.7-0.411c0.347,0.201,0.457,0.479,0.256,0.91c-1.046,2.261-1.587,4.615-1.014,7.103
	c0.79,3.426,3.005,5.586,6.264,6.665c1.286,0.424,2.668,0.557,4.009,0.826C77.939,42.691,77.946,42.639,77.956,42.587z"/>
<path fill-rule="evenodd" clip-rule="evenodd" fill="#EF473A" d="M88.251,52.372c0,0.848,0,1.642,0,2.468
	c-8.948,0-17.864,0-26.822,0c0-0.81,0-1.62,0-2.468C70.354,52.372,79.283,52.372,88.251,52.372z"/>
<path fill-rule="evenodd" clip-rule="evenodd" d="M69.943,36.434c0.852-2.322,1.668-4.547,2.487-6.775
	c0.259-0.716,0.534-1.425,0.777-2.144c0.107-0.311,0.253-0.46,0.612-0.44c0.645,0.029,1.295-0.02,1.94,0.022
	c0.191,0.013,0.473,0.178,0.534,0.34c1.085,2.918,2.147,5.849,3.21,8.78c0.02,0.052,0.016,0.11,0.029,0.217
	c-0.907,0-1.795,0.016-2.686-0.017c-0.126-0.006-0.304-0.236-0.359-0.395c-0.313-0.907-0.305-0.91-1.27-0.91
	c-0.457,0-0.919,0.039-1.37-0.009c-0.486-0.055-0.719,0.146-0.774,0.589c-0.071,0.602-0.37,0.819-0.991,0.758
	C71.407,36.385,70.717,36.434,69.943,36.434z M75.614,33.075c-0.263-0.91-0.515-1.784-0.765-2.659c-0.039,0-0.074-0.003-0.113-0.006
	c-0.272,0.874-0.541,1.749-0.826,2.665C74.536,33.075,75.041,33.075,75.614,33.075z"/>
<path fill-rule="evenodd" clip-rule="evenodd" d="M82.393,36.398c0-0.732,0-1.451,0-2.238c-0.78,0-1.513,0-2.28,0
	c0-0.703,0-1.337,0-2.027c0.732,0,1.448,0,2.241,0c0-0.78,0-1.512,0-2.277c0.71,0,1.345,0,2.027,0c0,0.739,0,1.455,0,2.241
	c0.777,0,1.51,0,2.273,0c0,0.706,0,1.344,0,2.024c-0.738,0-1.457,0-2.237,0c0,0.777,0,1.509,0,2.277
	C83.714,36.398,83.079,36.398,82.393,36.398z"/>
</svg>
