<?xml version="1.0" encoding="utf-8"?>
<!-- Generator: Adobe Illustrator 16.0.0, SVG Export Plug-In . SVG Version: 6.00 Build 0)  -->
<!DOCTYPE svg PUBLIC "-//W3C//DTD SVG 1.1//EN" "http://www.w3.org/Graphics/SVG/1.1/DTD/svg11.dtd">
<svg version="1.1" id="Layer_1" xmlns="http://www.w3.org/2000/svg" xmlns:xlink="http://www.w3.org/1999/xlink" x="0px" y="0px"
	 width="150px" height="150px" viewBox="0 0 150 150" enable-background="new 0 0 150 150" xml:space="preserve">
<rect x="-292.792" y="-35.606" fill="#EF473A" width="18.239" height="29.14"/>
<circle fill-rule="evenodd" clip-rule="evenodd" fill="none" stroke="#EF473A" stroke-width="5" stroke-miterlimit="10" cx="74.572" cy="74.867" r="71.867"/>
<text transform="matrix(1 0 0 1 52.9263 108.8828)"><tspan x="0" y="0" font-family="'MicrosoftNewTaiLue'" font-size="18">Class </tspan><tspan x="-13.583" y="21.6" font-family="'MicrosoftNewTaiLue'" font-size="18">Schedule</tspan></text>
<path fill-rule="evenodd" clip-rule="evenodd" fill="#EF473A" d="M77.407,85.502c-12.766,0-25.287-0.01-37.808,0.016
	c-1.11,0.002-1.551-0.388-1.509-1.5c0.055-1.428,0.011-2.862,0.011-4.293c0-18.25,0.026-36.502-0.039-54.752
	c-0.007-1.828,0.375-2.588,2.353-2.439c2.337,0.177,4.697,0.042,7.18,0.042c0.087,0.637,0.174,1.105,0.208,1.577
	c0.299,4.31,3.802,7.66,8.026,7.667c4.143,0.004,7.537-3.199,8.044-7.438c0.077-0.638,0.759-1.714,1.176-1.722
	c6.214-0.111,12.432-0.077,18.604-0.077c1.52,6.578,4.229,9.416,8.675,9.227c4.558-0.195,7.299-3.231,8.095-9.234
	c1.493,0,3.036,0,4.58,0c1.488,0,2.977,0,4.598,0c0,10.198,0,20.186,0,30.396c-1.69-0.976-3.366-1.849-4.914-2.908
	c-0.375-0.258-0.445-1.133-0.456-1.728c-0.048-2.559-0.022-5.118-0.022-7.797c-20.225,0-40.234,0-60.416,0
	c0,13.417,0,26.819,0,40.527c0.891,0,1.724,0,2.556,0c8.161,0,16.318,0,24.478,0C75.224,81.065,75.224,81.065,77.407,85.502z"/>
<path fill-rule="evenodd" clip-rule="evenodd" d="M95.245,90.742c-11.046,0.002-19.891-8.854-19.885-19.91
	c0.006-10.987,9.014-19.995,19.94-19.936c10.824,0.06,19.778,9.029,19.849,19.884C115.214,81.727,106.227,90.741,95.245,90.742z
	 M95.13,85.698c8.227,0.034,14.935-6.565,14.994-14.75c0.059-8.125-6.697-14.968-14.811-15.001
	c-8.206-0.034-14.868,6.595-14.896,14.821C80.389,79.106,86.85,85.666,95.13,85.698z"/>
<path fill-rule="evenodd" clip-rule="evenodd" fill="#EF473A" d="M86.707,21.129c0.054-1.068,0.031-2.146,0.179-3.201
	c0.374-2.662,2.476-4.458,5.142-4.486c2.696-0.029,4.943,1.665,5.233,4.342c0.247,2.25,0.252,4.568,0.012,6.818
	c-0.296,2.766-2.628,4.493-5.414,4.385c-2.655-0.102-4.683-1.942-4.993-4.652c-0.122-1.055-0.021-2.135-0.021-3.205
	C86.799,21.131,86.753,21.13,86.707,21.129z"/>
<path fill-rule="evenodd" clip-rule="evenodd" fill="#EF473A" d="M61.152,21.33c0,0.857,0.033,1.715-0.007,2.571
	c-0.134,2.844-2.259,4.971-5.048,5.085c-2.878,0.117-5.339-1.899-5.573-4.782c-0.16-1.985-0.166-4.005,0-5.99
	c0.241-2.888,2.687-4.879,5.585-4.771c2.758,0.102,4.905,2.262,5.036,5.104C61.188,19.473,61.152,20.402,61.152,21.33z"/>
<path fill-rule="evenodd" clip-rule="evenodd" fill="#EF473A" d="M50.606,57.012c2.512,0,4.84,0,7.331,0c0,2.469,0,4.849,0,7.365
	c-2.446,0-4.828,0-7.331,0C50.606,61.932,50.606,59.599,50.606,57.012z"/>
<path fill-rule="evenodd" clip-rule="evenodd" fill="#EF473A" d="M64.015,57.029c2.531,0,4.859,0,7.307,0c0,2.456,0,4.788,0,7.302
	c-2.362,0-4.747,0-7.307,0C64.015,61.988,64.015,59.606,64.015,57.029z"/>
<path fill-rule="evenodd" clip-rule="evenodd" fill="#EF473A" d="M57.993,68.609c0,2.401,0,4.722,0,7.207c-2.452,0-4.833,0-7.363,0
	c0-2.393,0-4.709,0-7.207C52.975,68.609,55.357,68.609,57.993,68.609z"/>
<path fill-rule="evenodd" clip-rule="evenodd" fill="#EF473A" d="M63.85,68.516c2.615,0,4.945,0,7.436,0c0,2.41,0,4.785,0,7.444
	c-2.13,0-4.251,0.059-6.363-0.057c-0.378-0.02-1-0.753-1.024-1.186C63.789,72.74,63.85,70.75,63.85,68.516z"/>
<path fill-rule="evenodd" clip-rule="evenodd" fill="#EF473A" d="M71.342,45.674c0,2.417,0,4.676,0,7.129c-2.413,0-4.841,0-7.366,0
	c0-2.385,0-4.697,0-7.129C66.436,45.674,68.766,45.674,71.342,45.674z"/>
<path fill-rule="evenodd" clip-rule="evenodd" fill="#EF473A" d="M77.363,52.765c0-2.295,0-4.611,0-7.068c2.472,0,4.839,0,7.191,0
	C85.412,51.507,83.199,53.688,77.363,52.765z"/>
<path fill-rule="evenodd" clip-rule="evenodd" fill="#EF473A" d="M88.348,48.099c0-0.765,0-1.53,0-2.464c2.393,0,4.757,0,7.239,0
	c0,0.784,0,1.523,0,2.464"/>
<path fill-rule="evenodd" clip-rule="evenodd" d="M94.495,74.491c-0.737-0.879-1.953-1.686-2-2.557
	c-0.051-0.92,0.938-2.667,1.601-2.731c3.868-0.371,6.724-2.938,10.14-4.221c0.595-0.224,1.444-0.337,1.97-0.079
	c1.302,0.642,1.121,2.177-0.359,2.995c-1.868,1.03-3.846,1.865-5.693,2.927c-1.191,0.686-2.216,1.658-3.356,2.445
	C96.236,73.658,95.585,73.92,94.495,74.491z"/>
</svg>
